<svg width="150" height="32" viewBox="0 0 150 32" fill="none" xmlns="http://www.w3.org/2000/svg">
<circle cx="16" cy="16" r="16" fill="#F2F2F2"/>
<path d="M13.1765 23V22.1176H14.0588V21.2353H9.64706C8.94502 21.2353 8.27173 20.9564 7.77531 20.46C7.27889 19.9636 7 19.2903 7 18.5882V10.6471C7 9.94502 7.27889 9.27173 7.77531 8.77531C8.27173 8.27889 8.94502 8 9.64706 8H22.8824C23.5844 8 24.2577 8.27889 24.7541 8.77531C25.2505 9.27173 25.5294 9.94502 25.5294 10.6471V18.5882C25.5294 19.2903 25.2505 19.9636 24.7541 20.46C24.2577 20.9564 23.5844 21.2353 22.8824 21.2353H18.4706V22.1176H19.3529V23H13.1765ZM14.9412 21.2353V22.1176H17.5882V21.2353H14.9412ZM9.64706 8.88235C9.17903 8.88235 8.73017 9.06828 8.39922 9.39922C8.06828 9.73017 7.88235 10.179 7.88235 10.6471V18.5882C7.88235 19.0563 8.06828 19.5051 8.39922 19.8361C8.73017 20.167 9.17903 20.3529 9.64706 20.3529H22.8824C23.3504 20.3529 23.7992 20.167 24.1302 19.8361C24.4611 19.5051 24.6471 19.0563 24.6471 18.5882V10.6471C24.6471 10.179 24.4611 9.73017 24.1302 9.39922C23.7992 9.06828 23.3504 8.88235 22.8824 8.88235H9.64706Z" fill="#7C6A46"/>
<circle cx="75" cy="16" r="16" fill="#F2F2F2"/>
<path d="M69.4615 22.4231C69.4615 22.5372 69.4277 22.6487 69.3643 22.7436C69.3009 22.8385 69.2108 22.9124 69.1054 22.9561C69 22.9997 68.884 23.0112 68.7721 22.9889C68.6601 22.9667 68.5573 22.9117 68.4767 22.831C68.396 22.7503 68.341 22.6475 68.3188 22.5356C68.2965 22.4237 68.3079 22.3077 68.3516 22.2023C68.3953 22.0969 68.4692 22.0068 68.5641 21.9434C68.659 21.88 68.7705 21.8462 68.8846 21.8462C69.0376 21.8462 69.1844 21.9069 69.2926 22.0151C69.4007 22.1233 69.4615 22.2701 69.4615 22.4231ZM71.1923 19.5385C71.0782 19.5385 70.9667 19.5723 70.8718 19.6357C70.7769 19.6991 70.703 19.7892 70.6593 19.8946C70.6156 20 70.6042 20.116 70.6265 20.2279C70.6487 20.3399 70.7037 20.4427 70.7844 20.5233C70.865 20.604 70.9678 20.659 71.0797 20.6812C71.1917 20.7035 71.3077 20.6921 71.4131 20.6484C71.5185 20.6047 71.6086 20.5308 71.672 20.4359C71.7354 20.341 71.7692 20.2295 71.7692 20.1154C71.7692 19.9624 71.7084 19.8156 71.6002 19.7074C71.492 19.5992 71.3453 19.5385 71.1923 19.5385ZM66.5769 19.5385C66.4628 19.5385 66.3513 19.5723 66.2564 19.6357C66.1615 19.6991 66.0876 19.7892 66.0439 19.8946C66.0002 20 65.9888 20.116 66.0111 20.2279C66.0333 20.3399 66.0883 20.4427 66.169 20.5233C66.2497 20.604 66.3525 20.659 66.4644 20.6812C66.5763 20.7035 66.6923 20.6921 66.7977 20.6484C66.9031 20.6047 66.9932 20.5308 67.0566 20.4359C67.12 20.341 67.1538 20.2295 67.1538 20.1154C67.1538 19.9624 67.0931 19.8156 66.9849 19.7074C66.8767 19.5992 66.7299 19.5385 66.5769 19.5385ZM68.8846 17.2308C68.7705 17.2308 68.659 17.2646 68.5641 17.328C68.4692 17.3914 68.3953 17.4815 68.3516 17.5869C68.3079 17.6923 68.2965 17.8083 68.3188 17.9203C68.341 18.0322 68.396 18.135 68.4767 18.2156C68.5573 18.2963 68.6601 18.3513 68.7721 18.3735C68.884 18.3958 69 18.3844 69.1054 18.3407C69.2108 18.297 69.3009 18.2231 69.3643 18.1282C69.4277 18.0333 69.4615 17.9218 69.4615 17.8077C69.4615 17.6547 69.4007 17.5079 69.2926 17.3998C69.1844 17.2916 69.0376 17.2308 68.8846 17.2308ZM83.3077 8.28849C83.3077 8.36499 83.2773 8.43837 83.2232 8.49246C83.1691 8.54656 83.0957 8.57695 83.0192 8.57695H80.9502C80.8739 8.57708 80.8008 8.60742 80.7468 8.66133L78.6728 10.7354L77.0956 19.9712C77.0694 20.1278 77.0005 20.2741 76.8966 20.3942C76.7926 20.5143 76.6577 20.6034 76.5065 20.6519C76.4204 20.6791 76.3306 20.6927 76.2404 20.6923C76.0114 20.6917 75.792 20.6004 75.6303 20.4385L68.563 13.3712C68.4502 13.259 68.3706 13.118 68.3327 12.9635C68.2949 12.8091 68.3003 12.6472 68.3485 12.4956C68.3966 12.3441 68.4856 12.2087 68.6056 12.1044C68.7256 12.0001 68.8721 11.9309 69.0288 11.9043L78.2596 10.3272L80.3336 8.25315C80.4144 8.17207 80.5105 8.10792 80.6164 8.06446C80.7223 8.02099 80.8358 7.99909 80.9502 8.00003H83.0192C83.0957 8.00003 83.1691 8.03042 83.2232 8.08452C83.2773 8.13861 83.3077 8.21199 83.3077 8.28849ZM78.0512 10.9488L69.1276 12.4712C69.0752 12.4796 69.026 12.5024 68.9857 12.537C68.9453 12.5716 68.9153 12.6167 68.899 12.6673C68.8827 12.7179 68.8806 12.772 68.8931 12.8237C68.9056 12.8753 68.9321 12.9226 68.9697 12.9601L76.037 20.0274C76.0745 20.065 76.1216 20.0915 76.1731 20.1041C76.2247 20.1166 76.2787 20.1147 76.3293 20.0985C76.3798 20.0824 76.4249 20.0526 76.4596 20.0124C76.4943 19.9722 76.5173 19.9233 76.5259 19.8709L78.0512 10.9488Z" fill="#7C6A46"/>
<circle cx="134" cy="16" r="16" fill="#F2F2F2"/>
<path d="M137.352 17.4951C136.538 16.8154 135.512 16.4418 134.451 16.4389C133.391 16.4359 132.363 16.8039 131.545 17.4791V17.4951M140.123 14.3444C138.523 13.0238 136.512 12.3016 134.437 12.3016C132.362 12.3016 130.351 13.0238 128.75 14.3444M142.856 11.0373C140.486 9.07422 137.505 8 134.428 8C131.351 8 128.37 9.07422 126 11.0373M134.437 19.3557C134.076 19.3557 133.724 19.4626 133.425 19.6628C133.125 19.863 132.891 20.1476 132.753 20.4806C132.616 20.8135 132.579 21.1799 132.65 21.5333C132.72 21.8868 132.894 22.2115 133.148 22.4663C133.403 22.7211 133.728 22.8947 134.081 22.965C134.435 23.0353 134.801 22.9992 135.134 22.8613C135.467 22.7234 135.752 22.4898 135.952 22.1902C136.152 21.8905 136.259 21.5382 136.259 21.1779C136.259 20.9386 136.212 20.7016 136.12 20.4806C136.029 20.2595 135.895 20.0586 135.725 19.8894C135.556 19.7202 135.355 19.586 135.134 19.4944C134.913 19.4029 134.676 19.3557 134.437 19.3557Z" stroke="#7C6A46" stroke-linecap="round" stroke-linejoin="round"/>
</svg>
